<svg xmlns="http://www.w3.org/2000/svg" viewBox="0 0 45 32"><path d="M13.742 5.053h29.192a2.526 2.526 0 0 0 0-5.052H13.742a2.525 2.525 0 1 0 0 5.052zm29.192 8.421H13.742a2.525 2.525 0 1 0 0 5.052h29.192a2.526 2.526 0 0 0 0-5.052zm0 13.473H13.742a2.526 2.526 0 0 0 0 5.052h29.192a2.527 2.527 0 0 0 0-5.052zM2.537 0h-.022C1.119 0 0 1.131 0 2.526s1.141 2.526 2.537 2.526a2.525 2.525 0 1 0 0-5.052zm0 13.474h-.022C1.119 13.474 0 14.605 0 16s1.141 2.526 2.537 2.526a2.525 2.525 0 1 0 0-5.052zm0 13.473h-.022C1.119 26.947 0 28.079 0 29.473s1.141 2.526 2.537 2.526a2.526 2.526 0 0 0 0-5.052z"/></svg>