<svg xmlns="http://www.w3.org/2000/svg" viewBox="0 0 32 32"><path fill="#e6cfb7" d="m31.009 24.106.888 1.794a.999.999 0 0 1-.45 1.338l-4.094 2.056c-1 .5-2.225.075-2.7-.944l-3.919-8.351h-8.732a2.003 2.003 0 0 1-1.981-1.719C7.902 3.454 8.027 4.373 8.002 3.998c0-2.275 1.894-4.1 4.194-3.994 2.081.094 3.75 1.806 3.807 3.888a4 4 0 0 1-3.413 4.063l.288 2.044h8.126c.55 0 1 .45 1 1v2c0 .55-.45 1-1 1h-7.551l.288 2h8.263c.775 0 1.481.45 1.813 1.15l3.594 7.651 2.263-1.144a.993.993 0 0 1 1.338.45zm-11.545-2.107h-1.531c-.488 3.388-3.407 6-6.932 6a7.005 7.005 0 0 1-7.001-7 7.015 7.015 0 0 1 3.519-6.075c-.231-1.625-.425-2.994-.594-4.144-4.05 1.625-6.926 5.594-6.926 10.219C-.001 27.062 4.937 32 11 32c4.494 0 8.363-2.706 10.07-6.575L19.464 22z"/></svg>